<mxfile host="app.diagrams.net" modified="2022-11-16T11:54:45.696Z" agent="5.0 (Windows NT 10.0; Win64; x64) AppleWebKit/537.36 (KHTML, like Gecko) Chrome/107.0.0.0 Safari/537.36" etag="iHhUa7ySmenKgO5COb2A" version="20.5.3" type="github">
  <diagram id="C5RBs43oDa-KdzZeNtuy" name="Page-1">
    <mxGraphModel dx="5567" dy="2540" grid="1" gridSize="10" guides="1" tooltips="1" connect="1" arrows="1" fold="1" page="1" pageScale="1" pageWidth="827" pageHeight="1169" math="0" shadow="0">
      <root>
        <mxCell id="WIyWlLk6GJQsqaUBKTNV-0" />
        <mxCell id="WIyWlLk6GJQsqaUBKTNV-1" parent="WIyWlLk6GJQsqaUBKTNV-0" />
        <mxCell id="WIyWlLk6GJQsqaUBKTNV-5" value="No" style="edgeStyle=orthogonalEdgeStyle;rounded=0;html=1;jettySize=auto;orthogonalLoop=1;fontSize=11;endArrow=block;endFill=0;endSize=8;strokeWidth=1;shadow=0;labelBackgroundColor=none;" parent="WIyWlLk6GJQsqaUBKTNV-1" source="WIyWlLk6GJQsqaUBKTNV-6" target="WIyWlLk6GJQsqaUBKTNV-7" edge="1">
          <mxGeometry y="10" relative="1" as="geometry">
            <mxPoint as="offset" />
          </mxGeometry>
        </mxCell>
        <mxCell id="WIyWlLk6GJQsqaUBKTNV-6" value="Check whether incident is genuine" style="rhombus;whiteSpace=wrap;html=1;shadow=0;fontFamily=Helvetica;fontSize=12;align=center;strokeWidth=1;spacing=6;spacingTop=-4;" parent="WIyWlLk6GJQsqaUBKTNV-1" vertex="1">
          <mxGeometry x="127.5" y="240" width="185" height="130" as="geometry" />
        </mxCell>
        <mxCell id="WIyWlLk6GJQsqaUBKTNV-7" value="Status = Rejected by HSE" style="rounded=1;whiteSpace=wrap;html=1;fontSize=12;glass=0;strokeWidth=1;shadow=0;" parent="WIyWlLk6GJQsqaUBKTNV-1" vertex="1">
          <mxGeometry x="560" y="285" width="120" height="40" as="geometry" />
        </mxCell>
        <mxCell id="P60irAPzrOkwS6y5Jbcz-9" value="Yes" style="rounded=0;html=1;jettySize=auto;orthogonalLoop=1;fontSize=11;endArrow=block;endFill=0;endSize=8;strokeWidth=1;shadow=0;labelBackgroundColor=none;edgeStyle=orthogonalEdgeStyle;entryX=0.5;entryY=0;entryDx=0;entryDy=0;" parent="WIyWlLk6GJQsqaUBKTNV-1" target="P60irAPzrOkwS6y5Jbcz-10" edge="1">
          <mxGeometry y="20" relative="1" as="geometry">
            <mxPoint as="offset" />
            <mxPoint x="220" y="370" as="sourcePoint" />
            <mxPoint x="219.71" y="460.0527302813016" as="targetPoint" />
            <Array as="points">
              <mxPoint x="220" y="420" />
            </Array>
          </mxGeometry>
        </mxCell>
        <mxCell id="P60irAPzrOkwS6y5Jbcz-22" value="" style="edgeStyle=orthogonalEdgeStyle;rounded=0;orthogonalLoop=1;jettySize=auto;html=1;strokeColor=default;" parent="WIyWlLk6GJQsqaUBKTNV-1" source="P60irAPzrOkwS6y5Jbcz-10" target="P60irAPzrOkwS6y5Jbcz-21" edge="1">
          <mxGeometry relative="1" as="geometry" />
        </mxCell>
        <mxCell id="P60irAPzrOkwS6y5Jbcz-10" value="Assigned to Team/Person" style="whiteSpace=wrap;html=1;shadow=0;strokeWidth=1;spacing=6;spacingTop=-4;" parent="WIyWlLk6GJQsqaUBKTNV-1" vertex="1">
          <mxGeometry x="160" y="470" width="120" height="60" as="geometry" />
        </mxCell>
        <mxCell id="P60irAPzrOkwS6y5Jbcz-15" style="edgeStyle=orthogonalEdgeStyle;rounded=0;orthogonalLoop=1;jettySize=auto;html=1;entryX=0.5;entryY=0;entryDx=0;entryDy=0;strokeColor=default;" parent="WIyWlLk6GJQsqaUBKTNV-1" source="P60irAPzrOkwS6y5Jbcz-12" target="P60irAPzrOkwS6y5Jbcz-13" edge="1">
          <mxGeometry relative="1" as="geometry" />
        </mxCell>
        <mxCell id="P60irAPzrOkwS6y5Jbcz-12" value="Incident Reported" style="shape=umlActor;verticalLabelPosition=bottom;verticalAlign=top;html=1;outlineConnect=0;" parent="WIyWlLk6GJQsqaUBKTNV-1" vertex="1">
          <mxGeometry x="205" y="30" width="30" height="60" as="geometry" />
        </mxCell>
        <mxCell id="P60irAPzrOkwS6y5Jbcz-16" style="edgeStyle=orthogonalEdgeStyle;rounded=0;orthogonalLoop=1;jettySize=auto;html=1;strokeColor=default;entryX=0.5;entryY=0;entryDx=0;entryDy=0;" parent="WIyWlLk6GJQsqaUBKTNV-1" source="P60irAPzrOkwS6y5Jbcz-13" target="WIyWlLk6GJQsqaUBKTNV-6" edge="1">
          <mxGeometry relative="1" as="geometry">
            <mxPoint x="220" y="230" as="targetPoint" />
          </mxGeometry>
        </mxCell>
        <mxCell id="P60irAPzrOkwS6y5Jbcz-13" value="HSE" style="rounded=1;whiteSpace=wrap;html=1;fontSize=12;glass=0;strokeWidth=1;shadow=0;" parent="WIyWlLk6GJQsqaUBKTNV-1" vertex="1">
          <mxGeometry x="160" y="160" width="120" height="40" as="geometry" />
        </mxCell>
        <mxCell id="P60irAPzrOkwS6y5Jbcz-24" value="Incident/PI" style="edgeStyle=orthogonalEdgeStyle;rounded=0;orthogonalLoop=1;jettySize=auto;html=1;strokeColor=default;" parent="WIyWlLk6GJQsqaUBKTNV-1" source="P60irAPzrOkwS6y5Jbcz-21" target="P60irAPzrOkwS6y5Jbcz-23" edge="1">
          <mxGeometry relative="1" as="geometry">
            <mxPoint x="716" y="500" as="sourcePoint" />
          </mxGeometry>
        </mxCell>
        <mxCell id="P60irAPzrOkwS6y5Jbcz-26" value="Near Miss" style="edgeStyle=orthogonalEdgeStyle;rounded=0;orthogonalLoop=1;jettySize=auto;html=1;strokeColor=default;" parent="WIyWlLk6GJQsqaUBKTNV-1" target="P60irAPzrOkwS6y5Jbcz-25" edge="1">
          <mxGeometry relative="1" as="geometry">
            <mxPoint x="656" y="565" as="sourcePoint" />
          </mxGeometry>
        </mxCell>
        <mxCell id="P60irAPzrOkwS6y5Jbcz-21" value="Incident Type" style="rhombus;whiteSpace=wrap;html=1;shadow=0;strokeWidth=1;spacing=6;spacingTop=-4;" parent="WIyWlLk6GJQsqaUBKTNV-1" vertex="1">
          <mxGeometry x="596" y="435" width="120" height="130" as="geometry" />
        </mxCell>
        <mxCell id="P60irAPzrOkwS6y5Jbcz-27" style="edgeStyle=orthogonalEdgeStyle;rounded=0;orthogonalLoop=1;jettySize=auto;html=1;strokeColor=default;entryX=1.011;entryY=0.578;entryDx=0;entryDy=0;entryPerimeter=0;" parent="WIyWlLk6GJQsqaUBKTNV-1" source="P60irAPzrOkwS6y5Jbcz-23" target="P60irAPzrOkwS6y5Jbcz-25" edge="1">
          <mxGeometry relative="1" as="geometry">
            <mxPoint x="726" y="760" as="targetPoint" />
            <Array as="points">
              <mxPoint x="786" y="755" />
              <mxPoint x="726" y="755" />
            </Array>
          </mxGeometry>
        </mxCell>
        <mxCell id="P60irAPzrOkwS6y5Jbcz-23" value="RCA" style="whiteSpace=wrap;html=1;shadow=0;strokeWidth=1;spacing=6;spacingTop=-4;" parent="WIyWlLk6GJQsqaUBKTNV-1" vertex="1">
          <mxGeometry x="836" y="470" width="120" height="60" as="geometry" />
        </mxCell>
        <mxCell id="4U61QrXmM4RzbrK2jB0B-22" value="" style="edgeStyle=orthogonalEdgeStyle;rounded=0;orthogonalLoop=1;jettySize=auto;html=1;" edge="1" parent="WIyWlLk6GJQsqaUBKTNV-1" source="P60irAPzrOkwS6y5Jbcz-25" target="4U61QrXmM4RzbrK2jB0B-21">
          <mxGeometry relative="1" as="geometry" />
        </mxCell>
        <mxCell id="P60irAPzrOkwS6y5Jbcz-25" value="Action Items with Timelines" style="whiteSpace=wrap;html=1;shadow=0;strokeWidth=1;spacing=6;spacingTop=-4;" parent="WIyWlLk6GJQsqaUBKTNV-1" vertex="1">
          <mxGeometry x="596" y="720" width="120" height="60" as="geometry" />
        </mxCell>
        <mxCell id="P60irAPzrOkwS6y5Jbcz-34" value="Yes" style="edgeStyle=orthogonalEdgeStyle;rounded=0;orthogonalLoop=1;jettySize=auto;html=1;strokeColor=default;" parent="WIyWlLk6GJQsqaUBKTNV-1" source="P60irAPzrOkwS6y5Jbcz-29" target="P60irAPzrOkwS6y5Jbcz-33" edge="1">
          <mxGeometry relative="1" as="geometry" />
        </mxCell>
        <mxCell id="P60irAPzrOkwS6y5Jbcz-68" value="No" style="edgeStyle=orthogonalEdgeStyle;rounded=0;orthogonalLoop=1;jettySize=auto;html=1;strokeColor=default;" parent="WIyWlLk6GJQsqaUBKTNV-1" source="P60irAPzrOkwS6y5Jbcz-29" target="P60irAPzrOkwS6y5Jbcz-67" edge="1">
          <mxGeometry relative="1" as="geometry" />
        </mxCell>
        <mxCell id="P60irAPzrOkwS6y5Jbcz-29" value="Action Items is relevant to other Department" style="rhombus;whiteSpace=wrap;html=1;shadow=0;strokeWidth=1;spacing=6;spacingTop=-4;" parent="WIyWlLk6GJQsqaUBKTNV-1" vertex="1">
          <mxGeometry x="150" y="945" width="160" height="170" as="geometry" />
        </mxCell>
        <mxCell id="P60irAPzrOkwS6y5Jbcz-36" value="No" style="edgeStyle=orthogonalEdgeStyle;rounded=0;orthogonalLoop=1;jettySize=auto;html=1;strokeColor=default;" parent="WIyWlLk6GJQsqaUBKTNV-1" source="P60irAPzrOkwS6y5Jbcz-33" target="P60irAPzrOkwS6y5Jbcz-35" edge="1">
          <mxGeometry relative="1" as="geometry" />
        </mxCell>
        <mxCell id="P60irAPzrOkwS6y5Jbcz-40" value="Yes" style="edgeStyle=orthogonalEdgeStyle;rounded=0;orthogonalLoop=1;jettySize=auto;html=1;strokeColor=default;entryX=0.575;entryY=0.029;entryDx=0;entryDy=0;entryPerimeter=0;" parent="WIyWlLk6GJQsqaUBKTNV-1" source="P60irAPzrOkwS6y5Jbcz-33" target="P60irAPzrOkwS6y5Jbcz-39" edge="1">
          <mxGeometry relative="1" as="geometry">
            <mxPoint x="220" y="1423" as="targetPoint" />
          </mxGeometry>
        </mxCell>
        <mxCell id="P60irAPzrOkwS6y5Jbcz-33" value="Action Items Done within given Timeline" style="rhombus;whiteSpace=wrap;html=1;shadow=0;strokeWidth=1;spacing=6;spacingTop=-4;" parent="WIyWlLk6GJQsqaUBKTNV-1" vertex="1">
          <mxGeometry x="145" y="1180" width="170" height="170" as="geometry" />
        </mxCell>
        <mxCell id="P60irAPzrOkwS6y5Jbcz-38" value="" style="edgeStyle=orthogonalEdgeStyle;rounded=0;orthogonalLoop=1;jettySize=auto;html=1;strokeColor=default;" parent="WIyWlLk6GJQsqaUBKTNV-1" source="P60irAPzrOkwS6y5Jbcz-35" target="P60irAPzrOkwS6y5Jbcz-37" edge="1">
          <mxGeometry relative="1" as="geometry" />
        </mxCell>
        <mxCell id="P60irAPzrOkwS6y5Jbcz-35" value="Apply for 1st Extension" style="whiteSpace=wrap;html=1;shadow=0;strokeWidth=1;spacing=6;spacingTop=-4;" parent="WIyWlLk6GJQsqaUBKTNV-1" vertex="1">
          <mxGeometry x="430" y="1235" width="120" height="60" as="geometry" />
        </mxCell>
        <mxCell id="P60irAPzrOkwS6y5Jbcz-42" value="Approved" style="edgeStyle=orthogonalEdgeStyle;rounded=0;orthogonalLoop=1;jettySize=auto;html=1;strokeColor=default;" parent="WIyWlLk6GJQsqaUBKTNV-1" source="P60irAPzrOkwS6y5Jbcz-37" target="P60irAPzrOkwS6y5Jbcz-41" edge="1">
          <mxGeometry relative="1" as="geometry" />
        </mxCell>
        <mxCell id="P60irAPzrOkwS6y5Jbcz-37" value="Approval request to Line Manager" style="rhombus;whiteSpace=wrap;html=1;shadow=0;strokeWidth=1;spacing=6;spacingTop=-4;" parent="WIyWlLk6GJQsqaUBKTNV-1" vertex="1">
          <mxGeometry x="630" y="1092.25" width="110" height="127.5" as="geometry" />
        </mxCell>
        <mxCell id="P60irAPzrOkwS6y5Jbcz-46" value="" style="edgeStyle=orthogonalEdgeStyle;rounded=0;orthogonalLoop=1;jettySize=auto;html=1;strokeColor=default;" parent="WIyWlLk6GJQsqaUBKTNV-1" source="P60irAPzrOkwS6y5Jbcz-39" target="P60irAPzrOkwS6y5Jbcz-45" edge="1">
          <mxGeometry relative="1" as="geometry" />
        </mxCell>
        <mxCell id="P60irAPzrOkwS6y5Jbcz-39" value="Request for Incident Closure" style="whiteSpace=wrap;html=1;shadow=0;strokeWidth=1;spacing=6;spacingTop=-4;" parent="WIyWlLk6GJQsqaUBKTNV-1" vertex="1">
          <mxGeometry x="150" y="1416.25" width="120" height="60" as="geometry" />
        </mxCell>
        <mxCell id="P60irAPzrOkwS6y5Jbcz-41" value="Timeline extended" style="whiteSpace=wrap;html=1;shadow=0;strokeWidth=1;spacing=6;spacingTop=-4;" parent="WIyWlLk6GJQsqaUBKTNV-1" vertex="1">
          <mxGeometry x="840" y="1126" width="120" height="60" as="geometry" />
        </mxCell>
        <mxCell id="P60irAPzrOkwS6y5Jbcz-45" value="HSE" style="rounded=1;whiteSpace=wrap;html=1;shadow=0;strokeWidth=1;spacing=6;spacingTop=-4;" parent="WIyWlLk6GJQsqaUBKTNV-1" vertex="1">
          <mxGeometry x="160" y="1790" width="120" height="60" as="geometry" />
        </mxCell>
        <mxCell id="P60irAPzrOkwS6y5Jbcz-52" value="Status = Closed by HSE" style="whiteSpace=wrap;html=1;shadow=0;strokeWidth=1;spacing=6;spacingTop=-4;" parent="WIyWlLk6GJQsqaUBKTNV-1" vertex="1">
          <mxGeometry x="550" y="2100" width="120" height="60" as="geometry" />
        </mxCell>
        <mxCell id="P60irAPzrOkwS6y5Jbcz-59" value="No" style="edgeStyle=orthogonalEdgeStyle;rounded=0;orthogonalLoop=1;jettySize=auto;html=1;strokeColor=default;" parent="WIyWlLk6GJQsqaUBKTNV-1" source="P60irAPzrOkwS6y5Jbcz-53" target="P60irAPzrOkwS6y5Jbcz-58" edge="1">
          <mxGeometry relative="1" as="geometry" />
        </mxCell>
        <mxCell id="P60irAPzrOkwS6y5Jbcz-53" value="Action Items fully done" style="rhombus;whiteSpace=wrap;html=1;shadow=0;strokeWidth=1;spacing=6;spacingTop=-4;" parent="WIyWlLk6GJQsqaUBKTNV-1" vertex="1">
          <mxGeometry x="140" y="2050" width="160" height="170" as="geometry" />
        </mxCell>
        <mxCell id="P60irAPzrOkwS6y5Jbcz-56" value="Yes" style="endArrow=classic;html=1;rounded=0;strokeColor=default;exitX=1;exitY=0.5;exitDx=0;exitDy=0;" parent="WIyWlLk6GJQsqaUBKTNV-1" source="P60irAPzrOkwS6y5Jbcz-53" target="P60irAPzrOkwS6y5Jbcz-52" edge="1">
          <mxGeometry width="50" height="50" relative="1" as="geometry">
            <mxPoint x="60" y="1894.5" as="sourcePoint" />
            <mxPoint x="170" y="1894.5" as="targetPoint" />
          </mxGeometry>
        </mxCell>
        <mxCell id="P60irAPzrOkwS6y5Jbcz-58" value="Request Team/Person to review their work" style="whiteSpace=wrap;html=1;shadow=0;strokeWidth=1;spacing=6;spacingTop=-4;" parent="WIyWlLk6GJQsqaUBKTNV-1" vertex="1">
          <mxGeometry x="150" y="2350" width="120" height="60" as="geometry" />
        </mxCell>
        <mxCell id="P60irAPzrOkwS6y5Jbcz-67" value="Request HSE for Re assignment" style="whiteSpace=wrap;html=1;shadow=0;strokeWidth=1;spacing=6;spacingTop=-4;" parent="WIyWlLk6GJQsqaUBKTNV-1" vertex="1">
          <mxGeometry x="-140" y="1000" width="120" height="60" as="geometry" />
        </mxCell>
        <mxCell id="P60irAPzrOkwS6y5Jbcz-69" value="HSE" style="rounded=1;whiteSpace=wrap;html=1;shadow=0;strokeWidth=1;spacing=6;spacingTop=-4;" parent="WIyWlLk6GJQsqaUBKTNV-1" vertex="1">
          <mxGeometry x="-140" y="470" width="120" height="60" as="geometry" />
        </mxCell>
        <mxCell id="P60irAPzrOkwS6y5Jbcz-71" value="" style="endArrow=classic;html=1;rounded=0;strokeColor=default;entryX=0.5;entryY=1;entryDx=0;entryDy=0;" parent="WIyWlLk6GJQsqaUBKTNV-1" target="P60irAPzrOkwS6y5Jbcz-69" edge="1" source="P60irAPzrOkwS6y5Jbcz-67">
          <mxGeometry width="50" height="50" relative="1" as="geometry">
            <mxPoint x="-80" y="720" as="sourcePoint" />
            <mxPoint x="-80" y="640" as="targetPoint" />
          </mxGeometry>
        </mxCell>
        <mxCell id="P60irAPzrOkwS6y5Jbcz-74" value="" style="endArrow=classic;html=1;rounded=0;strokeColor=default;exitX=1;exitY=0.5;exitDx=0;exitDy=0;" parent="WIyWlLk6GJQsqaUBKTNV-1" source="P60irAPzrOkwS6y5Jbcz-69" target="P60irAPzrOkwS6y5Jbcz-10" edge="1">
          <mxGeometry width="50" height="50" relative="1" as="geometry">
            <mxPoint x="-10" y="510" as="sourcePoint" />
            <mxPoint x="40" y="460" as="targetPoint" />
          </mxGeometry>
        </mxCell>
        <mxCell id="P60irAPzrOkwS6y5Jbcz-75" value="" style="endArrow=classic;html=1;rounded=0;strokeColor=default;exitX=0.5;exitY=1;exitDx=0;exitDy=0;" parent="WIyWlLk6GJQsqaUBKTNV-1" source="P60irAPzrOkwS6y5Jbcz-41" target="4U61QrXmM4RzbrK2jB0B-1" edge="1">
          <mxGeometry width="50" height="50" relative="1" as="geometry">
            <mxPoint x="870" y="1213" as="sourcePoint" />
            <mxPoint x="900" y="1373" as="targetPoint" />
            <Array as="points" />
          </mxGeometry>
        </mxCell>
        <mxCell id="4U61QrXmM4RzbrK2jB0B-1" value="Action Items Done within given Timeline" style="rhombus;whiteSpace=wrap;html=1;shadow=0;strokeWidth=1;spacing=6;spacingTop=-4;" vertex="1" parent="WIyWlLk6GJQsqaUBKTNV-1">
          <mxGeometry x="817.5" y="1363.75" width="165" height="165" as="geometry" />
        </mxCell>
        <mxCell id="4U61QrXmM4RzbrK2jB0B-3" value="" style="endArrow=classic;html=1;rounded=0;entryX=1;entryY=0.5;entryDx=0;entryDy=0;" edge="1" parent="WIyWlLk6GJQsqaUBKTNV-1" source="4U61QrXmM4RzbrK2jB0B-1" target="P60irAPzrOkwS6y5Jbcz-39">
          <mxGeometry width="50" height="50" relative="1" as="geometry">
            <mxPoint x="817.5" y="1455.5" as="sourcePoint" />
            <mxPoint x="280" y="1453" as="targetPoint" />
          </mxGeometry>
        </mxCell>
        <mxCell id="4U61QrXmM4RzbrK2jB0B-4" value="Yes" style="edgeLabel;html=1;align=center;verticalAlign=middle;resizable=0;points=[];" vertex="1" connectable="0" parent="4U61QrXmM4RzbrK2jB0B-3">
          <mxGeometry x="0.1628" y="-3" relative="1" as="geometry">
            <mxPoint as="offset" />
          </mxGeometry>
        </mxCell>
        <mxCell id="4U61QrXmM4RzbrK2jB0B-5" value="No" style="edgeStyle=orthogonalEdgeStyle;rounded=0;orthogonalLoop=1;jettySize=auto;html=1;strokeColor=default;exitX=1;exitY=0.5;exitDx=0;exitDy=0;" edge="1" parent="WIyWlLk6GJQsqaUBKTNV-1" target="4U61QrXmM4RzbrK2jB0B-7" source="4U61QrXmM4RzbrK2jB0B-1">
          <mxGeometry relative="1" as="geometry">
            <mxPoint x="982.5" y="1383.75" as="sourcePoint" />
          </mxGeometry>
        </mxCell>
        <mxCell id="4U61QrXmM4RzbrK2jB0B-6" value="" style="edgeStyle=orthogonalEdgeStyle;rounded=0;orthogonalLoop=1;jettySize=auto;html=1;strokeColor=default;" edge="1" parent="WIyWlLk6GJQsqaUBKTNV-1" source="4U61QrXmM4RzbrK2jB0B-7" target="4U61QrXmM4RzbrK2jB0B-10">
          <mxGeometry relative="1" as="geometry" />
        </mxCell>
        <mxCell id="4U61QrXmM4RzbrK2jB0B-7" value="Apply for 2nd Extension" style="whiteSpace=wrap;html=1;shadow=0;strokeWidth=1;spacing=6;spacingTop=-4;" vertex="1" parent="WIyWlLk6GJQsqaUBKTNV-1">
          <mxGeometry x="1100" y="1363.75" width="120" height="60" as="geometry" />
        </mxCell>
        <mxCell id="4U61QrXmM4RzbrK2jB0B-8" value="Approved" style="edgeStyle=orthogonalEdgeStyle;rounded=0;orthogonalLoop=1;jettySize=auto;html=1;strokeColor=default;" edge="1" parent="WIyWlLk6GJQsqaUBKTNV-1" source="4U61QrXmM4RzbrK2jB0B-10" target="4U61QrXmM4RzbrK2jB0B-11">
          <mxGeometry relative="1" as="geometry" />
        </mxCell>
        <mxCell id="4U61QrXmM4RzbrK2jB0B-9" value="Rejected" style="edgeStyle=orthogonalEdgeStyle;rounded=0;orthogonalLoop=1;jettySize=auto;html=1;strokeColor=default;" edge="1" parent="WIyWlLk6GJQsqaUBKTNV-1" source="4U61QrXmM4RzbrK2jB0B-10" target="4U61QrXmM4RzbrK2jB0B-12">
          <mxGeometry relative="1" as="geometry" />
        </mxCell>
        <mxCell id="4U61QrXmM4RzbrK2jB0B-10" value="Approval request to Works Manager/CFO" style="rhombus;whiteSpace=wrap;html=1;shadow=0;strokeWidth=1;spacing=6;spacingTop=-4;" vertex="1" parent="WIyWlLk6GJQsqaUBKTNV-1">
          <mxGeometry x="1320" y="1330" width="150" height="127.5" as="geometry" />
        </mxCell>
        <mxCell id="4U61QrXmM4RzbrK2jB0B-11" value="Timeline extended" style="whiteSpace=wrap;html=1;shadow=0;strokeWidth=1;spacing=6;spacingTop=-4;" vertex="1" parent="WIyWlLk6GJQsqaUBKTNV-1">
          <mxGeometry x="1590" y="1363.75" width="120" height="60" as="geometry" />
        </mxCell>
        <mxCell id="4U61QrXmM4RzbrK2jB0B-12" value="" style="whiteSpace=wrap;html=1;shadow=0;strokeWidth=1;spacing=6;spacingTop=-4;" vertex="1" parent="WIyWlLk6GJQsqaUBKTNV-1">
          <mxGeometry x="1335" y="1580" width="120" height="60" as="geometry" />
        </mxCell>
        <mxCell id="4U61QrXmM4RzbrK2jB0B-13" value="" style="endArrow=classic;html=1;rounded=0;strokeColor=default;exitX=0.5;exitY=1;exitDx=0;exitDy=0;entryX=0.5;entryY=0;entryDx=0;entryDy=0;" edge="1" parent="WIyWlLk6GJQsqaUBKTNV-1" source="4U61QrXmM4RzbrK2jB0B-11" target="4U61QrXmM4RzbrK2jB0B-15">
          <mxGeometry width="50" height="50" relative="1" as="geometry">
            <mxPoint x="1560" y="1528.75" as="sourcePoint" />
            <mxPoint x="1590" y="1678.75" as="targetPoint" />
            <Array as="points" />
          </mxGeometry>
        </mxCell>
        <mxCell id="4U61QrXmM4RzbrK2jB0B-20" value="" style="edgeStyle=orthogonalEdgeStyle;rounded=0;orthogonalLoop=1;jettySize=auto;html=1;entryX=1.013;entryY=0.921;entryDx=0;entryDy=0;entryPerimeter=0;" edge="1" parent="WIyWlLk6GJQsqaUBKTNV-1" source="4U61QrXmM4RzbrK2jB0B-15" target="P60irAPzrOkwS6y5Jbcz-39">
          <mxGeometry relative="1" as="geometry">
            <mxPoint x="310" y="1470" as="targetPoint" />
            <Array as="points">
              <mxPoint x="280" y="1771" />
              <mxPoint x="280" y="1590" />
              <mxPoint x="310" y="1590" />
              <mxPoint x="310" y="1472" />
            </Array>
          </mxGeometry>
        </mxCell>
        <mxCell id="4U61QrXmM4RzbrK2jB0B-15" value="Action Items Done within given Timeline" style="rhombus;whiteSpace=wrap;html=1;shadow=0;strokeWidth=1;spacing=6;spacingTop=-4;" vertex="1" parent="WIyWlLk6GJQsqaUBKTNV-1">
          <mxGeometry x="1567.5" y="1688.75" width="165" height="165" as="geometry" />
        </mxCell>
        <mxCell id="4U61QrXmM4RzbrK2jB0B-16" value="Yes" style="edgeLabel;html=1;align=center;verticalAlign=middle;resizable=0;points=[];" vertex="1" connectable="0" parent="WIyWlLk6GJQsqaUBKTNV-1">
          <mxGeometry x="705.0173334881179" y="2091.796559798984" as="geometry" />
        </mxCell>
        <mxCell id="4U61QrXmM4RzbrK2jB0B-17" value="" style="edgeStyle=orthogonalEdgeStyle;rounded=0;orthogonalLoop=1;jettySize=auto;html=1;strokeColor=default;exitX=0.5;exitY=1;exitDx=0;exitDy=0;" edge="1" parent="WIyWlLk6GJQsqaUBKTNV-1" source="P60irAPzrOkwS6y5Jbcz-45" target="P60irAPzrOkwS6y5Jbcz-53">
          <mxGeometry relative="1" as="geometry">
            <mxPoint x="219.37" y="1860" as="sourcePoint" />
            <mxPoint x="219.37" y="2040" as="targetPoint" />
          </mxGeometry>
        </mxCell>
        <mxCell id="4U61QrXmM4RzbrK2jB0B-21" value="Request for Investigation Closure to Line Manager" style="rhombus;whiteSpace=wrap;html=1;shadow=0;strokeWidth=1;spacing=6;spacingTop=-4;" vertex="1" parent="WIyWlLk6GJQsqaUBKTNV-1">
          <mxGeometry x="589" y="840" width="134" height="180" as="geometry" />
        </mxCell>
        <mxCell id="4U61QrXmM4RzbrK2jB0B-25" value="No" style="endArrow=classic;html=1;rounded=0;entryX=0.5;entryY=1;entryDx=0;entryDy=0;exitX=0;exitY=0.5;exitDx=0;exitDy=0;" edge="1" parent="WIyWlLk6GJQsqaUBKTNV-1" source="4U61QrXmM4RzbrK2jB0B-21" target="P60irAPzrOkwS6y5Jbcz-10">
          <mxGeometry width="50" height="50" relative="1" as="geometry">
            <mxPoint x="580" y="925" as="sourcePoint" />
            <mxPoint x="280" y="680" as="targetPoint" />
          </mxGeometry>
        </mxCell>
        <mxCell id="4U61QrXmM4RzbrK2jB0B-27" value="Yes" style="endArrow=classic;html=1;rounded=0;entryX=1;entryY=0.5;entryDx=0;entryDy=0;exitX=0.5;exitY=1;exitDx=0;exitDy=0;" edge="1" parent="WIyWlLk6GJQsqaUBKTNV-1" source="4U61QrXmM4RzbrK2jB0B-21" target="P60irAPzrOkwS6y5Jbcz-29">
          <mxGeometry width="50" height="50" relative="1" as="geometry">
            <mxPoint x="440" y="1055" as="sourcePoint" />
            <mxPoint x="490" y="1005" as="targetPoint" />
          </mxGeometry>
        </mxCell>
      </root>
    </mxGraphModel>
  </diagram>
</mxfile>
